<?xml version="1.0" encoding="UTF-8" standalone="no"?><!DOCTYPE svg PUBLIC "-//W3C//DTD SVG 1.1//EN" "http://www.w3.org/Graphics/SVG/1.1/DTD/svg11.dtd"><svg width="100%" height="100%" viewBox="0 0 267 267" version="1.1" xmlns="http://www.w3.org/2000/svg" xmlns:xlink="http://www.w3.org/1999/xlink" xml:space="preserve" xmlns:serif="http://www.serif.com/" style="fill-rule:evenodd;clip-rule:evenodd;stroke-linejoin:round;stroke-miterlimit:2;"><rect id="Artboard1" x="0" y="0" width="266.667" height="266.667" style="fill:none;"/><g id="Artboard11" serif:id="Artboard1"><path d="M130.183,183.859c0.791,0.915 1.941,1.44 3.15,1.44c1.21,0 2.36,-0.525 3.151,-1.44c13.511,-15.612 66.673,-77.044 84.634,-97.799c1.067,-1.233 1.317,-2.976 0.639,-4.459c-0.678,-1.483 -2.159,-2.434 -3.79,-2.434c-31.782,-0 -137.486,-0 -169.268,-0c-1.63,-0 -3.111,0.951 -3.789,2.434c-0.678,1.483 -0.428,3.226 0.639,4.459c17.961,20.755 71.123,82.187 84.634,97.799Z"/></g></svg>